<?xml version="1.0" encoding="UTF-8"?>
<!DOCTYPE svg PUBLIC "-//W3C//DTD SVG 1.1//EN" "http://www.w3.org/Graphics/SVG/1.1/DTD/svg11.dtd">
<svg xmlns="http://www.w3.org/2000/svg" version="1.1" width="1080px" height="1080px" style="shape-rendering:geometricPrecision; text-rendering:geometricPrecision; image-rendering:optimizeQuality; fill-rule:evenodd; clip-rule:evenodd" xmlns:xlink="http://www.w3.org/1999/xlink">
<g><path style="opacity:0.925" fill="#C0681B" d="M 621.5,110.5 C 625.427,110.256 627.76,112.09 628.5,116C 628.5,133.333 628.5,150.667 628.5,168C 627.061,174.482 623.894,175.649 619,171.5C 618.333,152.167 618.333,132.833 619,113.5C 619.698,112.309 620.531,111.309 621.5,110.5 Z"/></g>
<g><path style="opacity:0.909" fill="#C0681B" d="M 549.5,141.5 C 553.107,141.379 555.273,143.045 556,146.5C 558.755,157.022 561.589,167.522 564.5,178C 562.041,183.241 558.875,183.741 555,179.5C 552.088,168.686 549.255,157.852 546.5,147C 546.613,144.601 547.613,142.768 549.5,141.5 Z"/></g>
<g><path style="opacity:0.906" fill="#C0681B" d="M 693.5,141.5 C 697.075,141.452 699.409,143.119 700.5,146.5C 697.335,157.828 694.168,169.161 691,180.5C 688.333,183.167 685.667,183.167 683,180.5C 682.833,179.5 682.667,178.5 682.5,177.5C 684.692,167.423 687.192,157.423 690,147.5C 690.564,145.113 691.73,143.113 693.5,141.5 Z"/></g>
<g><path style="opacity:0.915" fill="#C0681B" d="M 471.5,150.5 C 473.582,150.472 475.416,151.139 477,152.5C 485.747,168.33 494.747,183.996 504,199.5C 505.539,203.74 504.206,206.407 500,207.5C 498.605,207.22 497.438,206.553 496.5,205.5C 487.333,189.833 478.167,174.167 469,158.5C 468.023,155.183 468.856,152.516 471.5,150.5 Z"/></g>
<g><path style="opacity:0.916" fill="#C0681B" d="M 771.5,150.5 C 775.075,150.452 777.409,152.119 778.5,155.5C 769.333,171.833 760.167,188.167 751,204.5C 745.288,209.11 742.288,207.777 742,200.5C 751.593,183.641 761.426,166.974 771.5,150.5 Z"/></g>
<g><path style="opacity:0.887" fill="#C0681B" d="M 423.5,214.5 C 425.527,214.338 427.527,214.505 429.5,215C 437,222.5 444.5,230 452,237.5C 455.225,243.859 453.392,246.692 446.5,246C 438.667,238.167 430.833,230.333 423,222.5C 420.893,219.629 421.059,216.963 423.5,214.5 Z"/></g>
<g><path style="opacity:0.94" fill="#C0681B" d="M 817.5,214.5 C 823.331,213.513 825.498,215.846 824,221.5C 815.833,229.667 807.667,237.833 799.5,246C 794.333,246.833 792.167,244.667 793,239.5C 801.369,231.298 809.536,222.965 817.5,214.5 Z"/></g>
<g><path style="opacity:0.989" fill="#C0681B" d="M 371.5,296.5 C 541.834,296.333 712.167,296.5 882.5,297C 910.309,360.249 937.642,423.749 964.5,487.5C 964.124,489.383 963.124,490.883 961.5,492C 935.835,492.5 910.169,492.667 884.5,492.5C 884.17,498.868 884.504,505.202 885.5,511.5C 909.944,499.936 932.111,503.269 952,521.5C 960.81,531.084 965.643,542.418 966.5,555.5C 993.572,555.751 1012.07,568.417 1022,593.5C 1028.79,619.784 1021.29,640.951 999.5,657C 895.231,723.606 791.231,790.606 687.5,858C 641.359,886.019 592.359,892.353 540.5,877C 474.615,857.572 408.782,838.072 343,818.5C 302,849.5 261,880.5 220,911.5C 219.667,923.5 219.333,935.5 219,947.5C 215.612,958.224 208.445,964.724 197.5,967C 177.333,967.167 157.167,967.333 137,967.5C 115.451,967.645 93.9515,967.145 72.5,966C 63.1659,962.665 57.3326,956.165 55,946.5C 54.3333,841.833 54.3333,737.167 55,632.5C 58.7877,619.378 67.4544,612.044 81,610.5C 118.333,610.5 155.667,610.5 193,610.5C 211.768,613.791 220.934,625.124 220.5,644.5C 258.167,620.333 295.833,596.167 333.5,572C 344.784,565.522 356.784,561.022 369.5,558.5C 369.5,536.5 369.5,514.5 369.5,492.5C 343.831,492.667 318.165,492.5 292.5,492C 291.128,490.758 290.128,489.258 289.5,487.5C 316.573,423.691 343.906,360.025 371.5,296.5 Z"/></g>
<g><path style="opacity:1" fill="#C0681B" d="M 539.5,445.5 C 539.5,445.167 539.5,444.833 539.5,444.5C 556.871,402.889 574.538,361.389 592.5,320C 518.834,319.5 445.167,319.333 371.5,319.5C 373.174,314.823 374.84,310.156 376.5,305.5C 457.834,305.333 539.167,305.5 620.5,306C 600.654,351.892 580.82,398.058 561,444.5C 553.921,445.48 546.755,445.813 539.5,445.5 Z"/></g>
<g><path style="opacity:1" fill="#C0681B" d="M 916.5,445.5 C 916.611,444.883 916.944,444.383 917.5,444C 899.758,402.519 881.758,361.186 863.5,320C 789.167,319.5 714.834,319.333 640.5,319.5C 638.275,315.377 636.275,311.044 634.5,306.5C 715.165,305.333 795.831,305.167 876.5,306C 896.5,352.333 916.5,398.667 936.5,445C 929.842,445.5 923.175,445.666 916.5,445.5 Z"/></g>
<g><path style="opacity:1" fill="#C0681B" d="M 371.5,319.5 C 445.167,319.333 518.834,319.5 592.5,320C 574.538,361.389 556.871,402.889 539.5,444.5C 465.665,444.833 391.998,444.499 318.5,443.5C 336.167,402.167 353.833,360.833 371.5,319.5 Z"/></g>
<g><path style="opacity:1" fill="#C0681B" d="M 640.5,319.5 C 714.834,319.333 789.167,319.5 863.5,320C 881.758,361.186 899.758,402.519 917.5,444C 916.944,444.383 916.611,444.883 916.5,445.5C 842.164,445.833 767.83,445.5 693.5,444.5C 675.539,402.917 657.872,361.25 640.5,319.5 Z"/></g>
<g><path style="opacity:1" fill="#C0681B" d="M 856.5,492.5 C 856.5,527.167 856.5,561.833 856.5,596.5C 790.831,623.222 724.831,649.055 658.5,674C 649.955,669.561 641.289,665.394 632.5,661.5C 631.333,549.168 631.167,436.835 632,324.5C 655.401,380.714 679.567,436.548 704.5,492C 755.166,492.5 805.832,492.667 856.5,492.5 Z"/></g>
<g><path style="opacity:1" fill="#C0681B" d="M 318.5,443.5 C 391.998,444.499 465.665,444.833 539.5,444.5C 539.5,444.833 539.5,445.167 539.5,445.5C 465.497,445.833 391.497,445.5 317.5,444.5C 317.624,443.893 317.957,443.56 318.5,443.5 Z"/></g>
<g><path style="opacity:1" fill="#C0681B" d="M 535.5,454.5 C 531.306,463.746 527.306,473.08 523.5,482.5C 449.833,482.5 376.167,482.5 302.5,482.5C 305.871,473.418 309.538,464.418 313.5,455.5C 387.497,454.5 461.497,454.167 535.5,454.5 Z"/></g>
<g><path style="opacity:1" fill="#C0681B" d="M 523.5,482.5 C 527.306,473.08 531.306,463.746 535.5,454.5C 541.853,454.84 548.02,454.507 554,453.5C 554.925,454.047 555.758,454.713 556.5,455.5C 551.967,464.221 548.3,473.221 545.5,482.5C 537.848,482.819 530.514,482.819 523.5,482.5 Z"/></g>
<g><path style="opacity:1" fill="#C0681B" d="M 939.5,454.5 C 933.491,454.334 927.491,454.501 921.5,455C 925.644,464.119 929.644,473.286 933.5,482.5C 859.639,483.111 785.806,483.444 712,483.5C 711.075,482.953 710.242,482.287 709.5,481.5C 705.593,472.607 701.593,463.774 697.5,455C 698,454.5 698.5,454 699,453.5C 777.436,453.636 857.603,453.969 939.5,454.5 Z"/></g>
<g><path style="opacity:1" fill="#C0681B" d="M 939.5,454.5 C 944.315,463.472 948.649,472.805 952.5,482.5C 946.012,483.817 939.678,483.817 933.5,482.5C 929.644,473.286 925.644,464.119 921.5,455C 927.491,454.501 933.491,454.334 939.5,454.5 Z"/></g>
<g><path style="opacity:1" fill="#C0681B" d="M 856.5,492.5 C 862.833,492.5 869.167,492.5 875.5,492.5C 875.667,524.835 875.5,557.168 875,589.5C 868.712,591.769 862.545,594.103 856.5,596.5C 856.5,561.833 856.5,527.167 856.5,492.5 Z"/></g>
<g><path style="opacity:1" fill="#C0681B" d="M 955.5,546.5 C 955.565,546.938 955.399,547.272 955,547.5C 940.987,531.387 923.487,525.887 902.5,531C 896.275,532.779 890.609,535.612 885.5,539.5C 884.505,534.208 884.172,528.875 884.5,523.5C 904.666,509.616 924.332,510.45 943.5,526C 949.414,531.74 953.414,538.573 955.5,546.5 Z"/></g>
<g><path style="opacity:1" fill="#C0681B" d="M 884.5,523.5 C 884.172,528.875 884.505,534.208 885.5,539.5C 890.609,535.612 896.275,532.779 902.5,531C 923.487,525.887 940.987,531.387 955,547.5C 955.399,547.272 955.565,546.938 955.5,546.5C 957.301,550.159 957.634,553.993 956.5,558C 932.381,567.652 908.048,576.819 883.5,585.5C 883.169,564.66 883.503,543.993 884.5,523.5 Z"/></g>
<g><path style="opacity:1" fill="#C0681B" d="M 1014.5,602.5 C 1014.66,603.873 1014.49,605.207 1014,606.5C 999.937,584.395 980.104,576.562 954.5,583C 864.421,618.471 774.421,654.137 684.5,690C 682.866,690.494 681.199,690.66 679.5,690.5C 676.871,687.369 674.038,684.369 671,681.5C 670.409,680.517 670.743,679.85 672,679.5C 767.879,641.811 863.713,603.978 959.5,566C 988.451,562.487 1006.78,574.653 1014.5,602.5 Z"/></g>
<g><path style="opacity:1" fill="#C0681B" d="M 436.5,578.5 C 436.261,582.842 435.927,587.176 435.5,591.5C 398.643,575.784 363.309,578.618 329.5,600C 292.975,623.76 256.308,647.26 219.5,670.5C 219.195,665.238 219.529,660.072 220.5,655C 256.768,632.395 292.768,609.395 328.5,586C 359.153,564.376 392.153,560.043 427.5,573C 430.752,574.566 433.752,576.399 436.5,578.5 Z"/></g>
<g><path style="opacity:1" fill="#e4e7fa" d="M 436.5,578.5 C 439.908,579.367 443.242,580.533 446.5,582C 517.802,616.317 589.136,650.651 660.5,685C 677.479,696.752 684.479,712.918 681.5,733.5C 677.742,717.898 669.075,705.731 655.5,697C 581.954,662.058 508.62,626.892 435.5,591.5C 435.927,587.176 436.261,582.842 436.5,578.5 Z"/></g>
<g><path style="opacity:1" fill="#a1aff4" d="M 1014.5,602.5 C 1017.41,624.177 1009.41,640.677 990.5,652C 885.833,719.333 781.167,786.667 676.5,854C 637.351,875.45 596.017,881.116 552.5,871C 473.898,848.41 395.564,824.91 317.5,800.5C 313.853,801.486 312.686,803.819 314,807.5C 318.727,809.559 323.561,811.392 328.5,813C 292.495,827.224 256.329,841.058 220,854.5C 219.5,793.168 219.333,731.834 219.5,670.5C 256.308,647.26 292.975,623.76 329.5,600C 363.309,578.618 398.643,575.784 435.5,591.5C 508.62,626.892 581.954,662.058 655.5,697C 669.075,705.731 677.742,717.898 681.5,733.5C 675.101,756.895 659.768,769.229 635.5,770.5C 562.341,754.601 489.341,737.934 416.5,720.5C 412.092,722.364 411.425,725.197 414.5,729C 415.448,729.483 416.448,729.649 417.5,729.5C 416.402,730.397 416.402,731.23 417.5,732C 479.912,755.804 542.245,779.804 604.5,804C 611.643,806.937 618.976,809.27 626.5,811C 655.122,813.113 673.956,800.613 683,773.5C 684.691,766.509 684.858,759.509 683.5,752.5C 693.97,731.023 692.637,710.356 679.5,690.5C 681.199,690.66 682.866,690.494 684.5,690C 774.421,654.137 864.421,618.471 954.5,583C 980.104,576.562 999.937,584.395 1014,606.5C 1014.49,605.207 1014.66,603.873 1014.5,602.5 Z"/></g>
<g><path style="opacity:1" fill="#6a7fec" d="M 210.5,642.5 C 207.337,638.747 203.337,636.247 198.5,635C 157.5,634.333 116.5,634.333 75.5,635C 71.0001,636.747 67.0001,639.247 63.5,642.5C 62.1717,632.321 66.1717,625.154 75.5,621C 116.5,620.333 157.5,620.333 198.5,621C 207.788,625.064 211.788,632.231 210.5,642.5 Z"/></g>
<g><path style="opacity:1" fill="#C0681B" d="M 210.5,642.5 C 210.667,743.167 210.5,843.834 210,944.5C 207.928,952.573 202.761,957.073 194.5,958C 156.167,958.667 117.833,958.667 79.5,958C 70.7786,956.945 65.6119,952.111 64,943.5C 63.5,843.167 63.3333,742.834 63.5,642.5C 67.0001,639.247 71.0001,636.747 75.5,635C 116.5,634.333 157.5,634.333 198.5,635C 203.337,636.247 207.337,638.747 210.5,642.5 Z"/></g>
<g><path style="opacity:1" fill="#fafafe" d="M 161.5,661.5 C 177.009,660.846 184.842,668.18 185,683.5C 181.87,695.623 174.036,701.123 161.5,700C 148.229,694.526 144.062,685.026 149,671.5C 151.887,666.434 156.054,663.101 161.5,661.5 Z"/></g>
<g><path style="opacity:1" fill="#fbfbfe" d="M 160.5,728.5 C 178.828,727.984 186.661,736.651 184,754.5C 177.503,766.444 168.003,769.61 155.5,764C 145.983,756.31 144.149,747.143 150,736.5C 152.975,732.952 156.475,730.286 160.5,728.5 Z"/></g>
<g><path style="opacity:1" fill="#6b81ed" d="M 417.5,729.5 C 490.201,747.341 563.201,764.008 636.5,779.5C 656.915,778.352 672.581,769.352 683.5,752.5C 684.858,759.509 684.691,766.509 683,773.5C 673.956,800.613 655.122,813.113 626.5,811C 618.976,809.27 611.643,806.937 604.5,804C 542.245,779.804 479.912,755.804 417.5,732C 416.402,731.23 416.402,730.397 417.5,729.5 Z"/></g>
</svg>
